# xmcd
#
# Track frame offsets:
#	150
#	14190
#	25372
#	40590
#	53610
#	64807
#	76940
#	94947
#	107812
#	119097
#	133267
#	146230
#	159660
#	173972
#	188130
#	197490
#	214485
#	227675
#
# Disc length: 3230 seconds
#
# Revision: 1
# Processed by: cddbd v1.4PL0 Copyright (c) Steve Scherf et al.
# Submitted via: audiograbber 1.80
#
DISCID=0d0c9c12
DTITLE=UK Skiffle Group - UK Skiffle Group
DYEAR=1900
DGENRE=
TTITLE0=Can't Judge A Book
TTITLE1=Rock Island Line
TTITLE2=Jesse James
TTITLE3=The Letter
TTITLE4=Railroad Bill
TTITLE5=Mama Don't Allow
TTITLE6=You Are My Sunshine
TTITLE7=Worried Man Blues
TTITLE8=Nau Haka
TTITLE9=Midnight Special 1
TTITLE10=Down By The Riverside
TTITLE11=My Baby Left Me
TTITLE12=Save My Soul
TTITLE13=I'm A Hog For You
TTITLE14=Harry Lime Theme
TTITLE15=Walk and Talk With Jesus
TTITLE16=The Sheik Of Araby
TTITLE17=Midnight Special 2
EXTD=
EXTT0=
EXTT1=
EXTT2=
EXTT3=
EXTT4=
EXTT5=
EXTT6=
EXTT7=
EXTT8=
EXTT9=
EXTT10=
EXTT11=
EXTT12=
EXTT13=
EXTT14=
EXTT15=
EXTT16=
EXTT17=
PLAYORDER=
